<svg width="160" height="71" viewBox="0 0 160 71" fill="none" xmlns="http://www.w3.org/2000/svg">
<path d="M19.3 47.5C20.3 47.65 21.05 47.15 21.35 46.1C21.8 44.75 23 34.55 23.1 32.35C23.1 29.8 22.7 26.55 20.2 26.55C17.45 26.55 13.55 33.65 11.5 37.85C10.15 40.5 8.35 44 8.35 45.5C8.35 46.3 8.9 47.3 10 47.3C10.6 47.3 11.75 46.75 11.95 45.8C12.35 43.8 13.7 42.8 15.95 42.8C17.35 42.8 18 42.9 18 43.8C18 45.55 17.4 47.2 19.3 47.5ZM18.85 37.3C18.8 38.2 17.75 38.75 16.9 38.75C16.1 38.75 15.85 38.5 15.85 38.05C15.85 37.5 16.8 35.9 17.75 34.35C18 34 18.35 33.8 18.75 34C19.3 34.2 19.2 34.85 18.85 37.3ZM40.5898 47.1C41.4898 47.3 42.2898 46.95 42.7398 46.1C43.0898 45.3 45.1398 37.5 46.7398 31.15C47.5398 28.1 47.3898 26.65 45.9898 26C44.5398 25.25 43.1398 26.05 40.2898 29.55L38.2398 32.1C37.4398 33.1 36.8898 33.05 36.4398 31.9C35.6398 29.9 35.0398 28 34.0898 27.1C33.0398 25.95 31.5898 26.05 30.6398 27.25C29.3898 29 26.9398 36.65 25.8398 40.4C25.6898 41 25.5398 41.55 25.4898 42.2C25.3898 43.15 25.9898 44.05 26.8398 44.3C27.9898 44.55 28.8898 43.8 29.2398 42.15C29.8898 39.15 31.4898 33.75 32.4398 33.75C33.5898 33.75 33.7898 37.6 34.2398 38.65C34.8398 40.35 36.4398 40.65 37.6898 39.4C38.1398 39.05 39.8898 36.4 40.3898 35.75C40.8398 35.15 41.7398 35.45 41.5398 36.2C40.3898 40.6 39.3398 43.5 39.2898 45.2C39.2898 46.25 39.6398 46.85 40.5898 47.1ZM52.5961 56.2C54.3461 56.75 55.0961 55.25 55.8461 52.5C56.1961 51.35 56.5461 50.2 56.9461 49.05C59.2461 42.85 61.6961 36.75 64.5461 30.8C65.3461 29.2 65.1961 28.05 64.1461 27.55C62.5461 26.75 61.5961 28.3 60.6961 30.1L57.8461 36.6C57.3461 37.85 57.1461 38.45 56.4961 38.45C55.8961 38.35 55.6461 37.65 55.2961 36.35C54.4461 33.1 53.3961 29.5 53.1961 29.15C52.7461 28.2 51.8961 27.8 50.9461 28.05C50.1461 28.25 49.5961 29.2 49.7461 30.25C50.1461 32.5 52.4961 39.65 52.9961 42.25C53.1461 43.1 53.2961 43.95 53.5961 44.65C54.0461 45.5 54.0461 46.25 53.6461 47.45C52.9961 49.1 52.4461 50.75 51.9961 52.35C51.1961 54.7 51.3461 55.8 52.5961 56.2ZM82.3949 45.75C85.4449 45.35 88.5949 44.9 89.8449 44.75C90.7949 44.55 91.3949 43.9 91.3949 43.05C91.3949 40.8 88.8449 41.15 85.8449 41.55C84.2949 41.65 83.9449 41.3 84.3949 39.85C84.7949 38.5 85.6949 36.25 88.1949 29.95C88.6949 28.5 89.0949 26.85 87.4449 26.4C86.7949 26.15 86.2449 26.3 85.6949 26.85C84.6949 27.75 79.7949 41.15 79.5949 42.85C79.2949 44.8 80.2449 46.05 82.3949 45.75ZM94.4621 45.7C95.7121 46.2 96.5621 45.4 97.1621 44.1C98.9121 39.65 100.612 35.15 101.912 30.6C102.512 28.25 102.212 27.1 100.862 26.75C99.9121 26.5 99.1621 27.05 98.6621 28.5C98.2121 29.8 97.6121 32.5 95.9121 36.8C95.0621 39.3 93.4121 42.9 93.4121 44.15C93.4621 44.9 93.8121 45.45 94.4621 45.7ZM118.227 47.1C119.127 47.3 119.927 46.95 120.377 46.1C120.727 45.3 122.777 37.5 124.377 31.15C125.177 28.1 125.027 26.65 123.627 26C122.177 25.25 120.777 26.05 117.927 29.55L115.877 32.1C115.077 33.1 114.527 33.05 114.077 31.9C113.277 29.9 112.677 28 111.727 27.1C110.677 25.95 109.227 26.05 108.277 27.25C107.027 29 104.577 36.65 103.477 40.4C103.327 41 103.177 41.55 103.127 42.2C103.027 43.15 103.627 44.05 104.477 44.3C105.627 44.55 106.527 43.8 106.877 42.15C107.527 39.15 109.127 33.75 110.077 33.75C111.227 33.75 111.427 37.6 111.877 38.65C112.477 40.35 114.077 40.65 115.327 39.4C115.777 39.05 117.527 36.4 118.027 35.75C118.477 35.15 119.377 35.45 119.177 36.2C118.027 40.6 116.977 43.5 116.927 45.2C116.927 46.25 117.277 46.85 118.227 47.1ZM136.683 47.5C137.683 47.65 138.433 47.15 138.733 46.1C139.183 44.75 140.383 34.55 140.483 32.35C140.483 29.8 140.083 26.55 137.583 26.55C134.833 26.55 130.933 33.65 128.883 37.85C127.533 40.5 125.733 44 125.733 45.5C125.733 46.3 126.283 47.3 127.383 47.3C127.983 47.3 129.133 46.75 129.333 45.8C129.733 43.8 131.083 42.8 133.333 42.8C134.733 42.8 135.383 42.9 135.383 43.8C135.383 45.55 134.783 47.2 136.683 47.5ZM136.233 37.3C136.183 38.2 135.133 38.75 134.283 38.75C133.483 38.75 133.233 38.5 133.233 38.05C133.233 37.5 134.183 35.9 135.133 34.35C135.383 34 135.733 33.8 136.133 34C136.683 34.2 136.583 34.85 136.233 37.3ZM144.573 48.7C145.573 48.75 146.373 47.95 146.373 46.95C146.373 46.05 145.623 45.25 144.723 45.2C143.773 45.15 142.923 45.95 142.873 46.95C142.823 47.85 143.623 48.65 144.573 48.7Z" fill="#192A51"/>
</svg>
